<svg width="24" height="24" viewBox="0 0 24 24" fill="none" xmlns="http://www.w3.org/2000/svg">
<path d="M18 8.00177C18 6.41047 17.3679 4.88435 16.2426 3.75913C15.1174 2.63391 13.5913 2.00177 12 2.00177C10.4087 2.00177 8.88258 2.63391 7.75736 3.75913C6.63214 4.88435 6 6.41047 6 8.00177C6 15.0018 3 17.0018 3 17.0018H21C21 17.0018 18 15.0018 18 8.00177Z" stroke="#131313" stroke-width="1.5" stroke-linecap="round" stroke-linejoin="round"/>
<path d="M13.73 21.0018C13.5542 21.3048 13.3019 21.5564 12.9982 21.7313C12.6946 21.9062 12.3504 21.9982 12 21.9982C11.6496 21.9982 11.3054 21.9062 11.0018 21.7313C10.6982 21.5564 10.4458 21.3048 10.27 21.0018" stroke="#131313" stroke-width="1.5" stroke-linecap="round" stroke-linejoin="round"/>
</svg>
